<svg width="64" height="64" viewBox="0 0 64 64" fill="none" xmlns="http://www.w3.org/2000/svg">
<path d="M15.215 4.00002C15.1321 3.99926 15.0502 4.01914 14.9769 4.05789C14.9035 4.09663 14.841 4.15302 14.7948 4.22196C14.7487 4.2909 14.7205 4.37024 14.7126 4.45282C14.7048 4.53541 14.7176 4.61864 14.75 4.69502L15.0375 5.37377L20.125 17.2363C20.1596 17.317 20.2148 17.3871 20.2851 17.4397C20.3554 17.4923 20.4382 17.5254 20.5254 17.5358C20.6126 17.5462 20.7009 17.5335 20.7816 17.4989C20.8623 17.4643 20.9324 17.4091 20.985 17.3388L30.375 4.80002C30.4307 4.72574 30.4646 4.6374 30.473 4.54492C30.4813 4.45244 30.4637 4.35947 30.4222 4.27641C30.3807 4.19336 30.3169 4.12351 30.2379 4.0747C30.1589 4.02588 30.0679 4.00002 29.975 4.00002H15.215Z" fill="white"/>
<path d="M52.4913 7.25747L47.3313 19.3037C47.2988 19.3798 47.2857 19.4627 47.2932 19.545C47.3006 19.6274 47.3284 19.7066 47.374 19.7756C47.4195 19.8446 47.4815 19.9012 47.5543 19.9403C47.6272 19.9795 47.7086 20 47.7913 20H60.4163C60.5054 20 60.5929 19.9762 60.6698 19.9311C60.7467 19.8859 60.81 19.821 60.8534 19.7431C60.8967 19.6652 60.9185 19.5771 60.9163 19.488C60.9142 19.3989 60.8883 19.312 60.8413 19.2362L53.375 7.19122C53.3268 7.11367 53.2582 7.05082 53.1768 7.00948C53.0953 6.96814 53.0041 6.94989 52.9131 6.95672C52.822 6.96355 52.7345 6.99519 52.6602 7.04821C52.5858 7.10123 52.5274 7.1736 52.4913 7.25747Z" fill="white"/>
<path d="M10.625 7.19622L3.16125 19.2362C3.11423 19.312 3.0883 19.3989 3.08617 19.488C3.08404 19.5771 3.10577 19.6652 3.14912 19.7431C3.19247 19.821 3.25585 19.8859 3.33271 19.9311C3.40957 19.9762 3.4971 20 3.58625 20H16.2112C16.294 19.9999 16.3754 19.9792 16.4482 19.9399C16.521 19.9006 16.5829 19.8439 16.6284 19.7747C16.6739 19.7056 16.7015 19.6263 16.7087 19.5438C16.716 19.4614 16.7027 19.3785 16.67 19.3025L11.5 7.26247C11.463 7.18068 11.4047 7.11036 11.3312 7.05888C11.2577 7.00739 11.1716 6.97665 11.0821 6.96987C10.9926 6.9631 10.903 6.98054 10.8225 7.02036C10.7421 7.06019 10.6739 7.12093 10.625 7.19622Z" fill="white"/>
<path d="M49.1588 4.00001H33.4775C33.4323 3.99971 33.3878 4.01209 33.3492 4.03572C33.3107 4.05936 33.2795 4.09333 33.2592 4.13377C33.2389 4.17422 33.2303 4.21953 33.2344 4.26459C33.2386 4.30965 33.2552 4.35266 33.2825 4.38876L43.2725 17.6963C43.298 17.7304 43.3321 17.7573 43.3713 17.7741C43.4104 17.7909 43.4534 17.7971 43.4957 17.792C43.5381 17.787 43.5783 17.7708 43.6124 17.7452C43.6465 17.7196 43.6733 17.6855 43.69 17.6463L48.95 5.37501L49.375 4.33251C49.39 4.29672 49.3961 4.25784 49.3927 4.21919C49.3894 4.18055 49.3767 4.14328 49.3558 4.1106C49.335 4.07791 49.3064 4.05078 49.2728 4.03151C49.2391 4.01225 49.2013 4.00144 49.1625 4.00001H49.1588Z" fill="white"/>
<path d="M29.875 56L18.6962 24.3138C18.6634 24.2217 18.6029 24.1422 18.523 24.086C18.4431 24.0298 18.3477 23.9998 18.25 24H3.2125C3.12539 23.9998 3.03996 24.024 2.96595 24.0699C2.89194 24.1159 2.83232 24.1817 2.79388 24.2598C2.75545 24.338 2.73974 24.4254 2.74856 24.5121C2.75738 24.5987 2.79036 24.6812 2.84375 24.75L29.8437 59.7262C29.9352 59.8446 30.0655 59.9268 30.2118 59.9581C30.358 59.9895 30.5106 59.968 30.6425 59.8975C30.7752 59.8277 30.8783 59.7125 30.9332 59.573C30.988 59.4335 30.9909 59.279 30.9412 59.1375L29.875 56Z" fill="white"/>
<path d="M60.7875 24H45.75C45.6528 24 45.558 24.0302 45.4788 24.0864C45.3995 24.1426 45.3396 24.222 45.3075 24.3138L33.0325 59.0838C32.981 59.2297 32.9831 59.3893 33.0385 59.5338C33.0939 59.6784 33.1991 59.7984 33.335 59.8725C33.471 59.9461 33.6287 59.9691 33.78 59.9373C33.9313 59.9055 34.0665 59.8209 34.1613 59.6987L61.1563 24.75C61.2096 24.6812 61.2426 24.5987 61.2514 24.5121C61.2603 24.4254 61.2446 24.338 61.2061 24.2598C61.1677 24.1817 61.1081 24.1159 61.0341 24.0699C60.96 24.024 60.8746 23.9998 60.7875 24Z" fill="white"/>
<path d="M32.4 9.86626L39.4 19.2C39.4557 19.2743 39.4896 19.3626 39.498 19.4551C39.5063 19.5476 39.4887 19.6406 39.4472 19.7236C39.4057 19.8067 39.3419 19.8765 39.2629 19.9253C39.1839 19.9742 39.0929 20 39 20H25C24.9071 20 24.8161 19.9742 24.7371 19.9253C24.6581 19.8765 24.5943 19.8067 24.5528 19.7236C24.5113 19.6406 24.4937 19.5476 24.502 19.4551C24.5104 19.3626 24.5443 19.2743 24.6 19.2L31.6 9.86626C31.6466 9.80416 31.707 9.75376 31.7764 9.71905C31.8458 9.68433 31.9224 9.66626 32 9.66626C32.0776 9.66626 32.1542 9.68433 32.2236 9.71905C32.293 9.75376 32.3534 9.80416 32.4 9.86626ZM31.525 48.655L23.0625 24.6663C23.0359 24.5909 23.0278 24.5102 23.0388 24.4311C23.0498 24.3519 23.0797 24.2765 23.1258 24.2113C23.172 24.146 23.2331 24.0928 23.3041 24.056C23.3751 24.0193 23.4538 24.0001 23.5338 24H40.4663C40.5462 24.0001 40.6249 24.0193 40.6959 24.056C40.7669 24.0928 40.828 24.146 40.8742 24.2113C40.9203 24.2765 40.9501 24.3519 40.9612 24.4311C40.9722 24.5102 40.9641 24.5909 40.9375 24.6663L32.4712 48.655C32.4367 48.7524 32.3729 48.8367 32.2885 48.8963C32.2041 48.9559 32.1033 48.9879 32 48.9879C31.8967 48.9879 31.7959 48.9559 31.7115 48.8963C31.6271 48.8367 31.5633 48.7524 31.5287 48.655H31.525Z" fill="#FACC15"/>
</svg>
