<svg width="64" height="64" viewBox="0 0 64 64" fill="none" xmlns="http://www.w3.org/2000/svg">
<path d="M32 46C31.6519 46 31.3097 45.909 31.0075 45.7362L13.5 35.73C13.3479 35.6422 13.1753 35.5959 12.9996 35.596C12.824 35.5961 12.6514 35.6424 12.4994 35.7304C12.3473 35.8183 12.2211 35.9447 12.1334 36.097C12.0458 36.2492 11.9997 36.4218 12 36.5975V46C11.9997 46.3569 12.0949 46.7075 12.2758 47.0152C12.4567 47.3229 12.7167 47.5766 13.0288 47.75L31.0288 57.75C31.3259 57.915 31.6601 58.0017 32 58.0017C32.3399 58.0017 32.6741 57.915 32.9713 57.75L50.9712 47.75C51.2833 47.5766 51.5433 47.3229 51.7242 47.0152C51.9051 46.7075 52.0003 46.3569 52 46V36.5975C52.0003 36.4218 51.9542 36.2492 51.8666 36.097C51.7789 35.9447 51.6527 35.8183 51.5006 35.7304C51.3486 35.6424 51.176 35.5961 51.0004 35.596C50.8247 35.5959 50.6521 35.6422 50.5 35.73L32.9925 45.7362C32.6903 45.909 32.3482 46 32 46Z" fill="white"/>
<path d="M61.99 23.8125C61.99 23.8125 61.99 23.8025 61.99 23.7988C61.9576 23.4817 61.85 23.177 61.6761 22.91C61.5021 22.643 61.2669 22.4215 60.99 22.2638L32.99 6.26376C32.6877 6.091 32.3456 6.00012 31.9975 6.00012C31.6493 6.00012 31.3072 6.091 31.005 6.26376L3.00499 22.2638C2.69897 22.4387 2.44464 22.6915 2.26774 22.9964C2.09085 23.3013 1.99768 23.6475 1.99768 24C1.99768 24.3525 2.09085 24.6988 2.26774 25.0037C2.44464 25.3086 2.69897 25.5613 3.00499 25.7363L31.005 41.7363C31.3072 41.909 31.6493 41.9999 31.9975 41.9999C32.3456 41.9999 32.6877 41.909 32.99 41.7363L57.625 27.66C57.6631 27.638 57.7063 27.6265 57.7502 27.6265C57.7942 27.6266 57.8374 27.6382 57.8754 27.6603C57.9135 27.6823 57.945 27.714 57.9669 27.7522C57.9887 27.7903 58.0002 27.8335 58 27.8775V45.9438C58 47.02 58.8275 47.9438 59.9037 47.9975C60.1742 48.0105 60.4444 47.9685 60.6981 47.874C60.9518 47.7795 61.1837 47.6345 61.3797 47.4477C61.5757 47.261 61.7317 47.0364 61.8383 46.7875C61.945 46.5387 62 46.2707 62 46V24C61.9998 23.9374 61.9965 23.8748 61.99 23.8125Z" fill="#FACC15"/>
</svg>
